<svg width="20" height="23" viewBox="0 0 20 23" fill="none" xmlns="http://www.w3.org/2000/svg">
<path d="M10.443 11.6524C8.62306 11.6524 6.93814 10.1817 6.34484 8.07596C6.30893 7.94859 6.32525 7.81223 6.39022 7.69686C6.45518 7.58149 6.56347 7.49657 6.69126 7.46078C6.81904 7.42498 6.95586 7.44125 7.07161 7.506C7.18736 7.57075 7.27257 7.67869 7.30848 7.80605C7.77317 9.45641 9.09163 10.6546 10.443 10.6546C12.1189 10.6546 13.661 8.85089 13.7437 6.78955C13.7463 6.72412 13.7618 6.65983 13.7893 6.60037C13.8168 6.5409 13.8558 6.48742 13.9041 6.44298C13.9523 6.39854 14.0089 6.364 14.0705 6.34134C14.1322 6.31869 14.1977 6.30835 14.2634 6.31093C14.329 6.31351 14.3935 6.32896 14.4532 6.35638C14.5128 6.38381 14.5665 6.42267 14.6111 6.47077C14.6557 6.51886 14.6903 6.57523 14.713 6.63667C14.7358 6.69811 14.7461 6.76341 14.7436 6.82885C14.6878 8.04053 14.2369 9.20099 13.4594 10.1341C12.6327 11.1126 11.5612 11.6524 10.443 11.6524Z" fill="#EFC440"/>
<path d="M6.82321 8.47193C6.73702 8.47197 6.65227 8.44981 6.5772 8.4076C6.50212 8.36539 6.43926 8.30456 6.39471 8.23101C5.95393 7.50439 5.13377 5.034 5.48601 3.85066C5.53501 3.6736 5.62337 3.5098 5.74453 3.3714C5.75681 2.36521 6.37791 1.50331 7.48309 0.971876C9.34897 0.0777698 12.4894 0.225284 14.1911 1.87371C14.9389 2.59647 16.0007 4.23588 14.7301 7.09147C14.6894 7.18212 14.6226 7.25863 14.5381 7.31122C14.4536 7.3638 14.3553 7.39008 14.2557 7.3867C14.1562 7.38331 14.0599 7.3504 13.9792 7.29219C13.8985 7.23398 13.837 7.15311 13.8026 7.05991C13.6252 6.58999 13.3659 6.15495 13.0368 5.7748C13.0368 5.91071 13.0323 6.00541 13.0297 6.03633C13.0214 6.13472 12.984 6.22845 12.9222 6.30563C12.8604 6.3828 12.777 6.43995 12.6825 6.46983C12.5881 6.4997 12.4869 6.50096 12.3918 6.47344C12.2966 6.44592 12.2118 6.39087 12.1481 6.31525C11.7673 5.84858 11.3301 5.43057 10.8465 5.07072C10.9046 5.28122 10.9411 5.49704 10.9557 5.71489C10.9597 5.81018 10.9363 5.90464 10.8882 5.98707C10.84 6.06951 10.7692 6.13648 10.6841 6.18006C10.5989 6.22363 10.5031 6.24199 10.4078 6.23295C10.3125 6.22392 10.2219 6.18788 10.1465 6.12909C9.62807 5.72605 9.08166 5.36011 8.51136 5.034C8.47904 5.17765 8.43445 5.34385 8.3737 5.53581C8.34838 5.61412 8.30397 5.68495 8.24444 5.74194C7.57486 6.39255 7.3506 7.59844 7.32087 8.00813C7.31361 8.11411 7.27257 8.21501 7.20375 8.29612C7.13492 8.37723 7.04191 8.43431 6.93826 8.45904C6.90057 8.46797 6.86194 8.4723 6.82321 8.47193ZM6.4852 4.04649C6.42057 4.1283 6.30488 4.58373 6.55435 5.70394C6.60153 5.91458 6.65582 6.12458 6.71463 6.32685C6.88508 5.88425 7.13595 5.47676 7.45465 5.12483C7.51992 4.91798 7.56325 4.70489 7.58391 4.48903C7.54751 4.3868 7.5444 4.27572 7.57504 4.17162C7.60568 4.06753 7.66849 3.97572 7.75454 3.90928C8.05184 3.67867 8.38468 3.80171 9.17188 4.26293L9.22423 4.29385C9.16541 4.21884 9.12936 4.12862 9.12034 4.03384C9.11133 3.93906 9.12973 3.8437 9.17337 3.75901C9.21701 3.67432 9.28406 3.60386 9.3666 3.55595C9.44915 3.50804 9.54372 3.48468 9.63916 3.48864C9.75162 3.49315 10.5291 3.55306 11.6188 4.40272C11.5993 4.30803 11.6078 4.20972 11.6433 4.11976C11.6788 4.0298 11.7398 3.95207 11.8188 3.89603C11.8978 3.83999 11.9915 3.80806 12.0884 3.80412C12.1853 3.80019 12.2813 3.82441 12.3646 3.87385C13.0854 4.33377 13.7059 4.9336 14.1891 5.63759C14.5052 4.37953 14.2732 3.33855 13.4982 2.58874C12.1171 1.25338 9.44979 1.13936 7.92064 1.87242C7.3422 2.15006 6.67069 2.66668 6.75729 3.55499C6.76652 3.65465 6.74551 3.75478 6.697 3.8424C6.64849 3.93003 6.5747 4.00113 6.4852 4.04649Z" fill="#EFC440"/>
<path d="M8.4436 13.7119C8.31093 13.7119 8.18369 13.6594 8.08988 13.5659C7.99606 13.4724 7.94336 13.3455 7.94336 13.2133V10.4253C7.94336 10.3599 7.9563 10.295 7.98144 10.2345C8.00658 10.1741 8.04342 10.1191 8.08988 10.0728C8.13633 10.0265 8.19147 9.98977 8.25217 9.96471C8.31286 9.93965 8.37791 9.92676 8.4436 9.92676C8.50929 9.92676 8.57434 9.93965 8.63503 9.96471C8.69572 9.98977 8.75087 10.0265 8.79732 10.0728C8.84377 10.1191 8.88062 10.1741 8.90576 10.2345C8.9309 10.295 8.94384 10.3599 8.94384 10.4253V13.2133C8.94384 13.3455 8.89113 13.4724 8.79732 13.5659C8.70351 13.6594 8.57627 13.7119 8.4436 13.7119Z" fill="#EFC440"/>
<path d="M12.2815 13.712C12.1489 13.7118 12.0217 13.6593 11.928 13.5658C11.8342 13.4723 11.7814 13.3456 11.7812 13.2134V10.544C11.7813 10.4118 11.834 10.2849 11.9278 10.1914C12.0216 10.0979 12.1488 10.0454 12.2815 10.0454C12.4142 10.0454 12.5414 10.0979 12.6352 10.1914C12.729 10.2849 12.7817 10.4118 12.7817 10.544V13.2134C12.7817 13.3457 12.729 13.4725 12.6352 13.566C12.5414 13.6595 12.4142 13.712 12.2815 13.712Z" fill="#EFC440"/>
<path d="M19.4176 22.7243H1.30753C1.24178 22.7244 1.17666 22.7115 1.11589 22.6865C1.05513 22.6615 0.999906 22.6248 0.953386 22.5785C0.906866 22.5322 0.86996 22.4772 0.844781 22.4166C0.819601 22.3561 0.806641 22.2912 0.806641 22.2257V17.531C0.806641 16.2169 1.57186 14.9659 2.96013 14.0087C4.27083 13.1068 6.04881 12.5271 7.96639 12.377C8.09872 12.3667 8.22972 12.4093 8.33056 12.4953C8.4314 12.5813 8.49384 12.7037 8.50412 12.8356C8.5144 12.9675 8.4717 13.0981 8.3854 13.1986C8.2991 13.2991 8.17628 13.3613 8.04395 13.3716C6.29893 13.5069 4.69674 14.0248 3.52952 14.8293C2.41917 15.5946 1.80777 16.5544 1.80777 17.531V21.7271H18.9174V17.531C18.9174 16.5544 18.306 15.5946 17.1956 14.8293C16.0284 14.0248 14.4249 13.5069 12.6812 13.3716C12.6157 13.3665 12.5518 13.3486 12.4932 13.3189C12.4346 13.2893 12.3825 13.2484 12.3397 13.1986C12.297 13.1488 12.2645 13.0912 12.2442 13.0289C12.2238 12.9666 12.2159 12.9009 12.221 12.8356C12.2261 12.7703 12.2441 12.7067 12.2738 12.6483C12.3036 12.5899 12.3446 12.5379 12.3946 12.4953C12.4445 12.4527 12.5024 12.4204 12.5648 12.4001C12.6273 12.3798 12.6932 12.3719 12.7587 12.377C14.6763 12.5258 16.4543 13.1049 17.765 14.0087C19.1539 14.9659 19.9185 16.2169 19.9185 17.531V22.2257C19.9185 22.2912 19.9055 22.3561 19.8804 22.4166C19.8552 22.4772 19.8183 22.5322 19.7717 22.5785C19.7252 22.6248 19.67 22.6615 19.6092 22.6865C19.5485 22.7115 19.4834 22.7244 19.4176 22.7243Z" fill="#EFC440"/>
<path d="M4.82446 22.7251C4.69179 22.7251 4.56455 22.6726 4.47073 22.5791C4.37692 22.4856 4.32422 22.3588 4.32422 22.2265V18.9413C4.32888 18.812 4.38366 18.6897 4.47702 18.5999C4.57038 18.5101 4.69505 18.46 4.82478 18.46C4.95451 18.46 5.07918 18.5101 5.17254 18.5999C5.26591 18.6897 5.32068 18.812 5.32534 18.9413V22.2265C5.32534 22.292 5.31238 22.3569 5.2872 22.4175C5.26202 22.478 5.22512 22.533 5.1786 22.5793C5.13208 22.6256 5.07686 22.6623 5.01609 22.6873C4.95532 22.7124 4.8902 22.7252 4.82446 22.7251Z" fill="#EFC440"/>
<path d="M15.9026 22.7248C15.7702 22.7245 15.6434 22.6718 15.5499 22.5783C15.4565 22.4848 15.4041 22.3582 15.4043 22.2262V18.941C15.4043 18.8087 15.457 18.6819 15.5508 18.5884C15.6446 18.4949 15.7719 18.4424 15.9045 18.4424C16.0372 18.4424 16.1644 18.4949 16.2583 18.5884C16.3521 18.6819 16.4048 18.8087 16.4048 18.941V22.2262C16.4049 22.2919 16.3919 22.3569 16.3667 22.4176C16.3415 22.4782 16.3044 22.5333 16.2578 22.5797C16.2111 22.626 16.1557 22.6627 16.0947 22.6876C16.0338 22.7125 15.9685 22.7252 15.9026 22.7248Z" fill="#EFC440"/>
<path d="M10.3641 22.7247C10.2675 22.7246 10.173 22.6968 10.0919 22.6444C10.0108 22.5921 9.94666 22.5175 9.90715 22.4296L7.77434 17.6628L5.83543 13.343C5.79349 13.2251 5.79749 13.0957 5.84667 12.9806C5.89584 12.8655 5.98659 12.773 6.10094 12.7214C6.2153 12.6698 6.34493 12.6629 6.46417 12.702C6.5834 12.7411 6.68355 12.8234 6.74478 12.9327L8.68369 17.2531L10.3641 21.0022L12.0445 17.2531L13.9834 12.932C14.0102 12.8722 14.0486 12.8182 14.0963 12.7732C14.1441 12.7282 14.2002 12.693 14.2616 12.6696C14.323 12.6462 14.3884 12.6351 14.4541 12.6369C14.5198 12.6387 14.5845 12.6534 14.6446 12.6801C14.7046 12.7069 14.7587 12.7451 14.8039 12.7927C14.849 12.8403 14.8844 12.8963 14.9078 12.9575C14.9313 13.0187 14.9424 13.0839 14.9406 13.1493C14.9388 13.2148 14.9241 13.2793 14.8973 13.3391L12.9583 17.6602L10.8217 22.4271C10.7825 22.5155 10.7184 22.5907 10.6372 22.6435C10.5559 22.6963 10.4611 22.7245 10.3641 22.7247Z" fill="#EFC440"/>
<path d="M10.3642 22.7254C10.2984 22.7255 10.2333 22.7126 10.1725 22.6876C10.1118 22.6626 10.0565 22.6259 10.01 22.5796C9.96351 22.5333 9.9266 22.4783 9.90142 22.4178C9.87624 22.3572 9.86328 22.2923 9.86328 22.2268V13.5692C9.86794 13.44 9.92272 13.3176 10.0161 13.2278C10.1094 13.1381 10.2341 13.0879 10.3638 13.0879C10.4936 13.0879 10.6182 13.1381 10.7116 13.2278C10.805 13.3176 10.8597 13.44 10.8644 13.5692V22.2268C10.8644 22.359 10.8117 22.4859 10.7179 22.5794C10.6241 22.6729 10.4968 22.7254 10.3642 22.7254Z" fill="#EFC440"/>
<path d="M10.3616 14.0721C9.33075 14.0721 8.06205 13.8324 7.59348 13.1599C7.55597 13.1062 7.52944 13.0456 7.51543 12.9816C7.50141 12.9176 7.50017 12.8515 7.51178 12.7871C7.5234 12.7226 7.54763 12.6611 7.58311 12.6059C7.61858 12.5508 7.6646 12.5032 7.71854 12.4658C7.77248 12.4284 7.83328 12.402 7.89746 12.388C7.96165 12.3741 8.02797 12.3728 8.09264 12.3844C8.1573 12.396 8.21905 12.4201 8.27435 12.4555C8.32965 12.4908 8.37742 12.5367 8.41493 12.5905C8.53256 12.7592 9.22411 13.0742 10.3616 13.0742C11.4991 13.0742 12.19 12.7592 12.3076 12.5905C12.344 12.5341 12.3915 12.4856 12.4471 12.4478C12.5027 12.4101 12.5654 12.3839 12.6314 12.3709C12.6974 12.3578 12.7653 12.3582 12.8312 12.3719C12.8971 12.3856 12.9595 12.4123 13.0147 12.4506C13.07 12.4889 13.1169 12.5378 13.1528 12.5946C13.1886 12.6513 13.2126 12.7147 13.2233 12.7809C13.2341 12.8471 13.2313 12.9148 13.2152 12.9799C13.1991 13.045 13.1701 13.1062 13.1297 13.1599C12.6605 13.8324 11.3918 14.0721 10.3616 14.0721Z" fill="#EFC440"/>
</svg>
