<svg width="25" height="15" viewBox="0 0 25 15" fill="none" xmlns="http://www.w3.org/2000/svg">
<path d="M8.91337 8.13634C8.91337 8.13634 8.87534 8.22508 8.39994 9.3787C8.38093 9.42307 8.35557 9.4611 8.32388 9.49279C8.29219 9.52448 8.24782 9.54984 8.20345 9.56885C8.15908 9.58787 8.10837 9.59421 8.064 9.60055C8.01329 9.60055 7.96892 9.59421 7.92455 9.57519C7.88018 9.55618 7.83581 9.53716 7.80412 9.50547C7.76609 9.47378 7.74073 9.43574 7.72172 9.39771C7.7027 9.35968 7.69002 9.31531 7.69002 9.27094C7.69002 9.22657 7.69636 9.1822 7.71538 9.13783C8.19077 7.99689 8.2288 7.89547 8.2288 7.89547C8.67884 6.81158 9.73738 4.27615 6.66318 2.38092C6.46668 2.26049 6.28286 2.12104 6.11806 1.96258V11.6542C6.09904 12.2818 5.82015 12.8776 5.33842 13.3213C4.85669 13.765 4.21015 14.0185 3.53193 14.0375C2.84736 14.0375 2.18815 13.784 1.70008 13.3403C1.21201 12.8903 0.939453 12.2818 0.939453 11.6542C0.939453 11.0267 1.21201 10.4119 1.70008 9.96818C2.18815 9.51815 2.84102 9.27094 3.53193 9.27094H5.37645V0.0419922H6.11806V0.377936C6.14341 0.66951 6.24483 0.948407 6.40963 1.19561C6.57444 1.44281 6.79629 1.65199 7.06251 1.80411C10.6311 4.00993 9.33171 7.11583 8.90703 8.13634H8.91337Z" fill="#020202"/>
<path d="M14.8527 14.0123C15.2013 14.0123 15.4865 13.7271 15.4865 13.3785C15.4865 13.0299 15.2013 12.7446 14.8527 12.7446H7.183C7.02454 13.2137 6.76465 13.6384 6.42871 14.0123H14.8527Z" fill="black"/>
<path d="M7.46766 0.492067C7.52471 0.574468 7.60077 0.644192 7.69585 0.701239C8.0001 0.885058 8.29802 1.10057 8.58959 1.3351H24.3599C24.7086 1.3351 24.9938 1.04986 24.9938 0.701239C24.9938 0.352618 24.7086 0.0673828 24.3599 0.0673828H7.3916V0.30191C7.40428 0.365295 7.42963 0.428681 7.46766 0.492067Z" fill="black"/>
<path d="M24.36 12.7446H19.2891C18.9405 12.7446 18.6553 13.0299 18.6553 13.3785C18.6553 13.7271 18.9405 14.0123 19.2891 14.0123H24.36C24.7086 14.0123 24.9938 13.7271 24.9938 13.3785C24.9938 13.0299 24.7086 12.7446 24.36 12.7446Z" fill="black"/>
<path d="M24.3594 6.40576H10.6998C10.6491 6.80509 10.554 7.22978 10.4209 7.67347H24.3657C24.7144 7.67347 24.9996 7.38824 24.9996 7.03962C24.9996 6.691 24.7144 6.40576 24.3657 6.40576H24.3594Z" fill="black"/>
</svg>
