<svg width="11" height="12" viewBox="0 0 11 13" fill="none" xmlns="http://www.w3.org/2000/svg">
<path d="M10.9714 0.152079C10.9244 0.0589803 10.8259 0 10.7183 0H4.96565C4.86056 0 4.76427 0.0562032 4.71585 0.145732L1.15053 6.72825C1.10486 6.81223 1.10844 6.91286 1.15961 6.99379C1.2105 7.07473 1.30183 7.12419 1.40032 7.12419H3.216L0.0358145 12.5971C-0.0315856 12.713 -0.00159942 12.8589 0.106791 12.9414C0.158235 12.9806 0.220133 13 0.281756 13C0.349981 13 0.417931 12.9762 0.471576 12.9293L9.12106 5.33957C9.20717 5.26419 9.23606 5.14583 9.19397 5.04163C9.15188 4.93729 9.04761 4.86865 8.93124 4.86865H7.34033L10.9403 0.437592C11.0066 0.355998 11.0187 0.245178 10.9714 0.152079ZM6.54088 4.97273C6.47458 5.05432 6.46248 5.16514 6.50979 5.25824C6.55684 5.35134 6.65532 5.41032 6.76289 5.41032H8.2047L1.37474 11.4033L3.94199 6.98546C3.99068 6.90162 3.98958 6.79913 3.93896 6.71622C3.88835 6.63343 3.79591 6.58252 3.69605 6.58252H1.86469L5.13648 0.541667H10.1409L6.54088 4.97273Z" fill="black"/>
</svg>
