<svg width="20" height="21" viewBox="0 0 20 21" fill="none" xmlns="http://www.w3.org/2000/svg">
<g clip-path="url(#clip0_712_2241)">
<path d="M12.141 6.3899C11.8334 6.20853 11.5729 5.95915 11.3814 5.66442C11.1899 5.3697 11.0769 5.03611 11.0455 4.6928V4.29443H10.1855V15.2932H8.04806C7.25396 15.2932 6.49125 15.5944 5.92942 16.1288C5.36758 16.6632 5.05371 17.3887 5.05371 18.1465C5.05371 18.9044 5.37072 19.6299 5.92942 20.1643C6.48811 20.6987 7.25396 20.9999 8.04806 20.9999C8.83274 20.9772 9.57976 20.6727 10.1353 20.1416C10.6909 19.6137 11.011 18.9012 11.033 18.153V6.57451C11.2213 6.76235 11.4316 6.93077 11.6607 7.07327C15.2201 9.33392 13.996 12.3654 13.4749 13.6609C13.4749 13.6609 13.4278 13.7839 12.8786 15.1475C12.8597 15.196 12.8503 15.2511 12.8503 15.3029C12.8503 15.358 12.8629 15.4098 12.888 15.4584C12.91 15.507 12.9445 15.5523 12.9853 15.5879C13.0261 15.6236 13.0732 15.6527 13.1265 15.6721C13.1799 15.6916 13.2364 15.7013 13.2897 15.698C13.3462 15.698 13.3996 15.6851 13.453 15.6624C13.5032 15.6397 13.5503 15.6106 13.5879 15.5717C13.6256 15.5329 13.657 15.4875 13.6758 15.4389C14.2282 14.0625 14.269 13.9524 14.269 13.9524C14.7618 12.7314 16.2653 9.01976 12.1378 6.38666L12.141 6.3899Z" fill="black"/>
<path d="M18.3771 1.5743C16.249 -0.563269 12.8467 -0.521165 10.772 1.6747L9.981 2.49086L9.19004 1.6747C9.19004 1.6747 9.17434 1.65851 9.16807 1.65203C7.06198 -0.50821 3.65645 -0.498494 1.56292 1.6747C-0.530616 3.8479 -0.521199 7.36193 1.58489 9.52217L6.77007 14.8726C7.05256 14.7689 7.35074 14.6977 7.6552 14.6685L2.12789 8.96511C1.26474 8.07446 0.778236 6.86317 0.778236 5.60006C0.778236 2.97344 2.84038 0.842345 5.38903 0.842345C6.61314 0.839107 7.78702 1.34111 8.65017 2.235L9.71107 3.3297C9.86172 3.48516 10.1034 3.48516 10.2541 3.3297L11.315 2.235C11.315 2.235 11.3275 2.22205 11.3369 2.21233C13.1448 0.359773 16.0639 0.369489 17.8561 2.235C19.6514 4.10052 19.642 7.11255 17.8341 8.96187L15.5428 11.3262C15.5177 11.7504 15.4549 12.1909 15.3482 12.6476L18.3771 9.52217C18.4116 9.48979 18.443 9.45416 18.4744 9.42177C20.546 7.22591 20.5052 3.71511 18.3771 1.5743Z" fill="black"/>
</g>
<defs>
<clipPath id="clip0_712_2241">
<rect width="20" height="21" fill="white"/>
</clipPath>
</defs>
</svg>
