<svg width="11" height="12" viewBox="0 0 11 12" fill="none" xmlns="http://www.w3.org/2000/svg">
<path d="M9.65714 5.31677L10.5949 4.77477C10.981 4.55108 11.1141 4.05563 10.8915 3.66899L9.92739 1.99799C9.70471 1.61235 9.20826 1.47875 8.82161 1.70142L7.88032 2.24444C7.69762 2.35071 7.5367 2.27986 7.47546 2.24444C7.41422 2.20901 7.27303 2.10477 7.27303 1.89373V0.809719C7.27303 0.363363 6.90967 0 6.46331 0H4.53618C4.08982 0 3.72646 0.363363 3.72646 0.809719V1.89373C3.72646 2.10477 3.58475 2.20902 3.52403 2.24444C3.4633 2.27986 3.30237 2.35071 3.11917 2.24444L2.17787 1.70092C1.79123 1.47926 1.29528 1.61235 1.07209 1.99799L0.108023 3.66951C-0.114657 4.05564 0.0179417 4.55159 0.404587 4.77477L1.34285 5.31677C1.52555 5.42204 1.54528 5.59664 1.54528 5.66697C1.54528 5.73731 1.52554 5.91191 1.34285 6.01717L0.405092 6.55918C0.0189534 6.78287 -0.114138 7.27831 0.108528 7.66496L1.0726 9.33596C1.29528 9.72159 1.79173 9.8557 2.17838 9.63253L3.11967 9.08951C3.30185 8.98323 3.46329 9.05408 3.52453 9.08951C3.58577 9.12493 3.72696 9.22918 3.72696 9.44021V10.5242C3.72696 10.9706 4.09033 11.3339 4.53668 11.3339H6.46382C6.91017 11.3339 7.27353 10.9706 7.27353 10.5242V9.44021C7.27353 9.22918 7.41524 9.12493 7.47596 9.08951C7.53669 9.05408 7.69812 8.98323 7.88082 9.08951L8.82212 9.63303C9.20977 9.85519 9.70522 9.7221 9.9279 9.33596L10.892 7.66444C11.1146 7.2783 10.9821 6.78235 10.5954 6.55918L9.65765 6.01717C9.47495 5.91191 9.45522 5.73731 9.45522 5.66697C9.45522 5.59664 9.47495 5.42204 9.65765 5.31677H9.65714ZM9.25178 6.71856L10.19 7.26006L9.22597 8.93158L8.28518 8.38856C7.90512 8.16943 7.45117 8.16893 7.0706 8.38856C6.69054 8.6082 6.46331 9.00142 6.46331 9.44019V10.5242H4.53618V9.44019C4.53618 9.00142 4.30895 8.60769 3.92889 8.38856C3.7386 8.27874 3.5301 8.22359 3.3216 8.22359C3.11309 8.22359 2.90459 8.27875 2.71481 8.38806L1.77352 8.93057L0.809952 7.25957L1.74771 6.71756C2.12777 6.49793 2.355 6.1047 2.355 5.66594C2.355 5.22717 2.12777 4.83344 1.74771 4.61431L0.809447 4.07281L1.77352 2.40129L2.71431 2.94431C3.09437 3.16344 3.54832 3.16394 3.92889 2.94431C4.30895 2.72467 4.53618 2.33145 4.53618 1.89268V0.80867H6.46331V1.89268C6.46331 2.33145 6.69054 2.72518 7.0706 2.94431C7.45066 3.16394 7.90512 3.16394 8.28467 2.94431L9.22597 2.4018L10.1895 4.0728L9.25178 4.6148C8.87171 4.83444 8.64449 5.22766 8.64449 5.66643C8.64449 6.10519 8.87171 6.49842 9.25178 6.71805V6.71856Z" fill="black"/>
<path d="M5.49969 3.37158C4.234 3.37158 3.2041 4.40144 3.2041 5.66717C3.2041 6.9329 4.23346 7.96276 5.49969 7.96276C6.76592 7.96276 7.79528 6.9329 7.79528 5.66717C7.79528 4.40144 6.76592 3.37158 5.49969 3.37158ZM5.49969 7.15304C4.68086 7.15304 4.01382 6.48654 4.01382 5.66717C4.01382 4.8478 4.68032 4.1813 5.49969 4.1813C6.31906 4.1813 6.98556 4.8478 6.98556 5.66717C6.98556 6.48654 6.31906 7.15304 5.49969 7.15304Z" fill="black"/>
</svg>
