<svg width="130" height="31" viewBox="0 0 130 31" fill="none" xmlns="http://www.w3.org/2000/svg">
<path d="M26.8144 0.154651C27.1122 0.179582 27.4654 0.234985 27.8754 0.322245C28.2853 0.409504 28.669 0.545241 29.0291 0.732226C29.3879 0.917825 29.6995 1.15467 29.9599 1.44C30.2203 1.72532 30.3505 2.05358 30.3505 2.42617C30.3505 2.77382 30.1081 3.02867 29.6247 3.18934C29.1413 3.3514 28.5637 3.45666 27.8934 3.50514C27.223 3.555 26.5277 3.57993 25.8088 3.57993H23.9847L15.684 3.80293C15.8072 4.57164 15.907 5.49133 15.9818 6.55784C16.0565 7.62573 16.1175 8.7047 16.1674 9.79613C16.2172 10.889 16.2477 11.9361 16.2602 12.9416C16.2726 13.9472 16.2782 14.7602 16.2782 15.3794C16.2782 15.6024 16.2837 15.9929 16.2975 16.5525C16.31 17.1107 16.31 17.7506 16.2975 18.4694C16.2851 19.1897 16.2602 19.9404 16.2228 20.7216C16.1854 21.5028 16.123 22.2175 16.0372 22.8615C15.9499 23.507 15.8377 24.0402 15.702 24.4627C15.5648 24.8851 15.3848 25.0956 15.1618 25.0956C14.9873 25.0956 14.8086 25.0402 14.623 24.928C14.4374 24.8158 14.256 24.6856 14.0828 24.5374C13.9083 24.3892 13.7532 24.2397 13.6174 24.0915C13.4803 23.9433 13.375 23.8186 13.3016 23.7189C13.0786 23.3463 12.9415 22.7881 12.8917 22.0443C12.8418 21.2991 12.8293 20.5055 12.8543 19.662C12.8792 18.8185 12.9291 17.9874 13.0025 17.1689C13.0773 16.3503 13.1147 15.655 13.1147 15.0843C13.1396 13.1245 13.177 11.5053 13.2268 10.2269C13.2767 8.94985 13.3321 7.89997 13.3944 7.08139C13.4568 6.26281 13.5302 5.61737 13.6174 5.14645C13.7047 4.67552 13.7975 4.26554 13.8972 3.91789C11.9124 3.96775 9.93314 4.04809 7.9608 4.16028C5.98846 4.27108 3.9718 4.32787 1.9122 4.32787C1.29168 4.32787 0.819375 4.22261 0.498038 4.01207C0.175317 3.80154 0.0146484 3.59655 0.0146484 3.39849C0.0146484 3.00236 0.212714 2.71011 0.610229 2.52312C1.00636 2.33752 1.49113 2.21287 2.06178 2.15054C2.63243 2.08821 3.23494 2.05774 3.86653 2.05774C4.49812 2.05774 5.05077 2.02034 5.52308 1.94555C7.25996 1.77241 9.0093 1.5605 10.7711 1.31257C12.5329 1.06464 14.3003 0.841646 16.0759 0.642196C17.8502 0.444131 19.6314 0.289003 21.4182 0.176812C23.2049 0.0646213 25.0041 0.059081 26.8158 0.157421L26.8144 0.154651Z" fill="url(#paint0_linear_459_1266)"/>
<path d="M22.2352 7.6368C22.2352 7.04122 22.3959 6.62569 22.7186 6.39023C23.0413 6.15477 23.389 6.04951 23.7602 6.07305C24.1328 6.09798 24.461 6.2351 24.7463 6.48303C25.0317 6.73096 25.1369 7.05368 25.0635 7.4512C25.0137 7.62572 24.9569 8.05924 24.8959 8.75316C24.8336 9.44847 24.7533 10.292 24.6535 11.2851C24.5538 12.2782 24.461 13.3696 24.3738 14.5608C24.2865 15.7519 24.2062 16.9306 24.1314 18.0969C24.4292 17.4514 24.7574 16.8254 25.1175 16.2173C25.4763 15.6093 25.7561 15.1688 25.9555 14.896C26.1536 14.648 26.4389 14.4555 26.8115 14.3198C27.1841 14.184 27.5428 14.1217 27.8904 14.1342C28.2381 14.1466 28.5165 14.2339 28.7284 14.3946C28.9389 14.5566 28.9833 14.8101 28.8586 15.1577C28.7838 15.3807 28.6966 15.8461 28.5982 16.5539C28.4985 17.2617 28.4182 17.9874 28.3558 18.7312C28.2935 19.4764 28.2686 20.1454 28.281 20.741C28.2935 21.3365 28.3614 21.6343 28.486 21.6343C28.6342 21.6343 28.8268 21.4612 29.0622 21.1135C29.2977 20.7659 29.5401 20.3504 29.788 19.867C30.0359 19.3836 30.2589 18.8877 30.4584 18.378C30.6564 17.8697 30.806 17.4542 30.9057 17.1315C30.9805 16.9085 31.0969 16.7589 31.2589 16.6855C31.4196 16.6107 31.5747 16.5857 31.7243 16.6107C31.8725 16.6356 31.9972 16.7159 32.0969 16.8531C32.1953 16.9902 32.2202 17.1702 32.1717 17.3932C32.0969 17.7409 31.9349 18.2312 31.6883 18.8642C31.4404 19.4972 31.1357 20.1426 30.7769 20.8005C30.4168 21.4584 30.0068 22.0415 29.5484 22.5499C29.0885 23.0582 28.6232 23.3629 28.1522 23.4612C27.6314 23.561 27.209 23.5111 26.8863 23.313C26.5635 23.115 26.3156 22.8296 26.1411 22.4571C25.9666 22.0845 25.8489 21.6509 25.7879 21.1551C25.7256 20.6592 25.7007 20.1745 25.7131 19.7035C25.7256 19.2326 25.763 18.7977 25.8253 18.4002C25.8876 18.0041 25.9555 17.7063 26.0303 17.5068C25.9056 17.5567 25.7325 17.8351 25.5095 18.3448C25.2865 18.8531 25.0566 19.4238 24.8211 20.0567C24.5857 20.6897 24.3682 21.3171 24.1701 21.9363C23.9707 22.5568 23.8599 23.0152 23.835 23.313C23.835 23.3878 23.8225 23.4377 23.7976 23.4612V23.8338C23.7976 24.1815 23.6549 24.4474 23.3696 24.6344C23.0843 24.82 22.774 24.9197 22.4388 24.9322C22.1036 24.9447 21.8058 24.8699 21.5454 24.7092C21.285 24.5471 21.1798 24.2812 21.2283 23.9086C21.2781 23.2881 21.3404 22.4889 21.4139 21.5083C21.4886 20.5277 21.5621 19.4792 21.6369 18.3628C21.7116 17.2464 21.7851 16.1107 21.8598 14.9569C21.9346 13.8031 21.9956 12.7297 22.0454 11.7366C22.0953 10.7449 22.1382 9.882 22.1756 9.1493C22.213 8.41798 22.231 7.9152 22.231 7.64095L22.2352 7.6368Z" fill="url(#paint1_linear_459_1266)"/>
<path d="M37.0877 17.1661C36.8896 17.439 36.6417 17.6634 36.3439 17.8365C36.0461 18.011 35.7234 18.1537 35.3757 18.2645C35.0281 18.3753 34.6749 18.457 34.3148 18.5069C33.9546 18.5567 33.6388 18.5941 33.366 18.6191C33.2912 19.1398 33.2483 19.6495 33.2358 20.1454C33.2233 20.6426 33.2483 21.0886 33.3106 21.4861C33.3729 21.8837 33.4713 22.2189 33.6084 22.4903C33.7441 22.7632 33.9366 22.9363 34.1846 23.0111C34.5073 23.1108 34.8549 23.0554 35.2261 22.8435C35.5987 22.633 35.9575 22.3407 36.3051 21.9695C36.6528 21.597 36.9879 21.1634 37.3107 20.6662C37.632 20.1703 37.9187 19.6925 38.1666 19.2326C38.4146 18.7742 38.6251 18.3517 38.7996 17.9667C38.9728 17.5816 39.0849 17.3032 39.1348 17.1287C39.2096 16.9057 39.3259 16.7561 39.488 16.6827C39.6487 16.6079 39.8038 16.583 39.9534 16.6079C40.103 16.6329 40.2262 16.7132 40.326 16.8503C40.4243 16.9874 40.4492 17.1675 40.4008 17.3905C40.3509 17.5387 40.2636 17.8309 40.1404 18.2659C40.0157 18.6994 39.8357 19.1911 39.6002 19.7368C39.3647 20.2825 39.0794 20.8476 38.7442 21.4307C38.409 22.0139 38.006 22.5471 37.5351 23.0319C37.0641 23.5153 36.524 23.9183 35.9159 24.2411C35.3079 24.5638 34.6319 24.7244 33.8868 24.7244C32.9934 24.7244 32.2981 24.4142 31.8022 23.7937C31.305 23.1732 30.9698 22.392 30.7967 21.4488C30.6235 20.5055 30.5917 19.4944 30.7039 18.4154C30.8161 17.3351 31.0391 16.3254 31.3743 15.3821C31.7094 14.4389 32.1305 13.6577 32.6402 13.0372C33.1485 12.4167 33.7136 12.1064 34.3342 12.1064C34.9547 12.1064 35.4561 12.3114 35.9159 12.72C36.3744 13.13 36.7289 13.6079 36.9769 14.1536C37.2248 14.6993 37.3675 15.2575 37.4049 15.8281C37.4423 16.3988 37.3356 16.8462 37.0877 17.1675V17.1661ZM34.7801 13.853C34.6056 13.9278 34.42 14.2436 34.222 14.8018C34.0239 15.36 33.8369 16.0359 33.6638 16.8309C33.9366 16.8309 34.2095 16.8005 34.4824 16.7381C34.7552 16.6758 34.9533 16.5456 35.0779 16.3475C35.1763 16.1993 35.2386 15.9819 35.2635 15.6966C35.2885 15.4112 35.2829 15.1204 35.2455 14.8212C35.2081 14.5234 35.1458 14.2755 35.0599 14.0774C34.9727 13.8793 34.8799 13.8045 34.7801 13.8544V13.853Z" fill="url(#paint2_linear_459_1266)"/>
<path d="M54.4327 4.62163C53.1667 5.06901 52.1362 5.42774 51.3426 5.70199C50.5476 5.97485 49.9104 6.1923 49.4257 6.35297C48.9423 6.51503 48.5697 6.62583 48.3093 6.68816C48.0489 6.75049 47.819 6.78096 47.6209 6.78096C47.0253 6.78096 46.7275 6.63276 46.7275 6.33497C46.7275 6.16183 46.8148 5.96238 46.9879 5.73939C47.1611 5.51639 47.3536 5.30586 47.5641 5.10641C47.7746 4.90834 47.9796 4.73382 48.1777 4.58562C48.3758 4.43742 48.5129 4.35016 48.5877 4.32523C49.6043 3.63131 50.7221 3.0288 51.9382 2.52048C53.1529 2.01216 54.4133 1.58971 55.7167 1.25452C57.02 0.919337 58.3469 0.665869 59.7001 0.49135C61.0519 0.318217 62.3858 0.230957 63.7016 0.230957C64.4952 0.230957 65.3263 0.268354 66.1961 0.341763C67.0645 0.416557 67.8956 0.503816 68.6906 0.602156C69.361 0.701881 70.1103 0.837618 70.9427 1.01214C71.7738 1.18666 72.6228 1.40965 73.4927 1.68251C74.3611 1.95537 75.2046 2.28502 76.0232 2.66868C76.8418 3.05373 77.5745 3.50665 78.2199 4.02744C78.8653 4.54822 79.3792 5.15073 79.7643 5.83219C80.1493 6.51503 80.3405 7.2782 80.3405 8.12171C80.3405 9.3378 80.0122 10.4112 79.3543 11.342C78.6964 12.2728 77.8473 13.0733 76.8044 13.7437C75.7628 14.4141 74.5896 14.9847 73.2863 15.4557C71.9843 15.928 70.681 16.3186 69.3776 16.6288C68.0756 16.9391 66.8332 17.187 65.6559 17.374C64.4772 17.5596 63.5021 17.7022 62.7334 17.802C62.7085 18.5707 62.6531 19.4765 62.5658 20.5195C62.4786 21.5611 62.3608 22.5542 62.2126 23.4974C62.0644 24.4406 61.8774 25.2412 61.6545 25.8991C61.4315 26.5556 61.1572 26.8853 60.8359 26.8853C60.6364 26.8853 60.4758 26.6858 60.3525 26.2897C60.0048 25.3963 59.7998 24.3049 59.7389 23.014C59.6766 21.7245 59.6461 20.1234 59.6461 18.212C58.5547 18.3366 57.4812 18.4474 56.4258 18.5471C55.3704 18.6469 54.3233 18.7452 53.2803 18.8449C53.2554 18.82 53.0878 18.82 52.7775 18.8449C52.4673 18.8699 52.0767 18.9003 51.6044 18.9377C51.1335 18.9751 50.6307 19.007 50.0974 19.0305C49.5628 19.0555 49.0669 19.0555 48.6085 19.0305C48.1486 19.0056 47.765 18.9447 47.4547 18.8449C47.1444 18.7452 46.9893 18.597 46.9893 18.3976C46.9893 18.1981 47.2802 18.0125 47.8647 17.8394C48.4478 17.6662 49.1306 17.518 49.9118 17.3934C50.693 17.2701 51.4562 17.1704 52.2013 17.0956C52.9451 17.0208 53.4908 16.9599 53.8385 16.91C54.7817 16.8601 55.7374 16.7673 56.7042 16.6302C57.6724 16.4945 58.6641 16.3504 59.6821 16.2022C59.7569 16.0042 59.8123 15.6565 59.8497 15.1606C59.8871 14.6648 59.93 14.1066 59.9799 13.4861C60.0298 12.8656 60.0852 12.2271 60.1475 11.5692C60.2098 10.9112 60.2902 10.3101 60.3899 9.7644C60.4882 9.21869 60.6184 8.76577 60.7805 8.40565C60.9411 8.04692 61.1586 7.86686 61.4315 7.86686C61.9772 7.86686 62.3996 8.01506 62.6974 8.31285C62.9952 8.61064 63.2002 8.99569 63.311 9.46661C63.4218 9.93754 63.4717 10.4597 63.4592 11.0304C63.4467 11.601 63.4038 12.1786 63.329 12.7617C63.2542 13.3448 63.1669 13.8905 63.0686 14.3989C62.9689 14.9072 62.9066 15.3241 62.883 15.6454C63.4287 15.5706 64.1794 15.4529 65.1351 15.2922C66.0895 15.1316 67.113 14.9196 68.2058 14.6592C69.2973 14.3989 70.4012 14.0831 71.5189 13.7105C72.6353 13.3379 73.6464 12.8919 74.5522 12.3711C75.4581 11.8503 76.1963 11.2617 76.767 10.6038C77.3376 9.94585 77.6229 9.19514 77.6229 8.35163C77.6229 7.68126 77.393 7.0926 76.9346 6.58289C76.4747 6.07457 75.8736 5.62858 75.1298 5.24353C74.3846 4.85848 73.5356 4.53576 72.5799 4.27537C71.6242 4.01497 70.6436 3.80444 69.6394 3.64239C68.6352 3.48172 67.6421 3.36953 66.6615 3.3072C65.6809 3.24487 64.8069 3.2144 64.0382 3.2144C62.401 3.2144 60.7805 3.3446 59.1807 3.60499C57.581 3.86538 55.9978 4.2075 54.4355 4.62856L54.4327 4.62163Z" fill="url(#paint3_linear_459_1266)"/>
<path d="M79.2229 8.12019C79.2229 7.52461 79.3836 7.10909 79.7063 6.87363C80.0291 6.63817 80.3822 6.5329 80.7673 6.55645C81.1523 6.58138 81.4862 6.7185 81.7729 6.96643C82.0582 7.21436 82.1634 7.53708 82.0887 7.9346C82.0388 8.23239 81.9585 8.8155 81.8463 9.68394C81.7341 10.5524 81.6288 11.551 81.5291 12.6799C81.4294 13.8087 81.3435 14.9818 81.2687 16.1965C81.1939 17.4126 81.151 18.5359 81.1385 19.565C81.126 20.5955 81.1634 21.439 81.2507 22.0956C81.3379 22.7535 81.5042 23.0817 81.7535 23.0817C81.9017 23.0817 82.1067 22.8089 82.3671 22.2632C82.6274 21.7174 82.8878 21.0969 83.1482 20.4016C83.4086 19.7077 83.651 19.0304 83.874 18.3725C84.097 17.716 84.2466 17.288 84.32 17.0885C84.3699 16.8655 84.4807 16.7159 84.6552 16.6412C84.8283 16.5664 84.9959 16.5484 85.158 16.5858C85.3186 16.6231 85.4558 16.7104 85.568 16.8461C85.6788 16.9833 85.6982 17.1633 85.6234 17.3863C85.4752 17.8836 85.2757 18.5775 85.0278 19.4709C84.7799 20.3642 84.4696 21.2451 84.097 22.1136C83.7244 22.982 83.2784 23.7383 82.7576 24.3837C82.2369 25.0291 81.6163 25.3519 80.8961 25.3519C80.2257 25.3519 79.723 24.9987 79.3878 24.2909C79.0526 23.5831 78.8227 22.6842 78.6994 21.5928C78.5747 20.5013 78.5318 19.2853 78.5692 17.9445C78.6066 16.6051 78.6745 15.2962 78.7742 14.0178C78.8725 12.7394 78.9722 11.5746 79.072 10.5191C79.1703 9.4651 79.2202 8.66453 79.2202 8.11743L79.2229 8.12019Z" fill="url(#paint4_linear_459_1266)"/>
<path d="M88.7145 13.5176C89.0622 13.5924 89.3655 13.7531 89.6259 14.001C89.8863 14.249 90.1037 14.5218 90.2769 14.8196C90.4749 14.5966 90.7243 14.472 91.0221 14.447C91.3198 14.4221 91.6052 14.465 91.878 14.5772C92.1509 14.688 92.3739 14.8625 92.5484 15.098C92.7215 15.3349 92.7839 15.6133 92.734 15.936C92.6343 16.3834 92.5415 16.9415 92.4542 17.6105C92.367 18.2809 92.3116 18.9263 92.2866 19.5469C92.2617 20.1674 92.2797 20.7006 92.342 21.148C92.4044 21.594 92.5345 21.8184 92.7326 21.8184C92.8808 21.8184 93.0609 21.6272 93.2728 21.2422C93.4833 20.8571 93.6952 20.4042 93.9058 19.8834C94.1163 19.3626 94.3088 18.8419 94.482 18.3197C94.6551 17.7989 94.7673 17.4014 94.8172 17.1285C94.8919 16.8806 95.0152 16.713 95.1897 16.6257C95.3629 16.5385 95.5305 16.5135 95.6925 16.5509C95.8532 16.5883 95.9903 16.6811 96.1025 16.8307C96.2133 16.9789 96.2327 17.1659 96.1579 17.3889C96.108 17.5371 96.0277 17.8169 95.9155 18.2269C95.8033 18.6369 95.6607 19.0898 95.4875 19.5856C95.313 20.0829 95.1094 20.5967 94.8739 21.1314C94.6385 21.6646 94.3656 22.1356 94.0554 22.5455C93.7451 22.9555 93.3975 23.2713 93.0138 23.4943C92.6287 23.7173 92.2132 23.7672 91.7672 23.6425C91.047 23.4444 90.5262 23.0095 90.2035 22.3405C90.004 22.9361 89.7325 23.4763 89.3849 23.9597C89.0372 24.4431 88.5899 24.7977 88.0455 25.0207C87.5247 25.1938 87.0649 25.2312 86.6688 25.1328C85.9485 24.9334 85.3779 24.4874 84.9568 23.7935C84.5344 23.0996 84.2491 22.2921 84.1009 21.3738C83.9527 20.4555 83.9402 19.5011 84.0635 18.5081C84.1881 17.5163 84.4416 16.623 84.8266 15.8279C85.2117 15.0343 85.7255 14.4069 86.371 13.9484C87.0164 13.4899 87.7976 13.3473 88.7159 13.5204L88.7145 13.5176ZM89.6827 17.2767C89.6328 16.8557 89.54 16.4457 89.4029 16.0482C89.2658 15.652 89.0608 15.4277 88.7893 15.3778C88.3918 15.303 88.0386 15.447 87.7284 15.8058C87.4181 16.1659 87.1632 16.6437 86.9652 17.2393C86.7657 17.8349 86.6231 18.4859 86.5372 19.1937C86.4499 19.9014 86.425 20.5704 86.4624 21.2034C86.4998 21.8364 86.5981 22.3752 86.7602 22.8226C86.9209 23.2685 87.1632 23.5179 87.486 23.5663C87.8087 23.6162 88.112 23.4431 88.3973 23.0455C88.6827 22.6494 88.9306 22.1397 89.1425 21.5192C89.353 20.8987 89.5151 20.2103 89.6259 19.4541C89.7367 18.6978 89.7561 17.972 89.6813 17.2767H89.6827Z" fill="url(#paint5_linear_459_1266)"/>
<path d="M101.705 28.1829C101.705 28.6787 101.543 29.1261 101.222 29.5236C100.899 29.9197 100.544 30.2175 100.161 30.417C99.7757 30.615 99.428 30.6898 99.1192 30.64C98.8089 30.5901 98.6773 30.3547 98.7286 29.9322C98.7535 29.6095 98.784 29.151 98.8214 28.5554C98.8588 27.9599 98.9017 27.2895 98.9516 26.5457C99.0014 25.8005 99.0444 25.0014 99.0818 24.1454C99.1192 23.2894 99.1621 22.4265 99.212 21.5581C98.964 22.2284 98.6164 22.7991 98.1704 23.27C97.9225 23.5179 97.6302 23.6551 97.295 23.68C96.9598 23.7049 96.6371 23.6426 96.3282 23.4944C96.018 23.3462 95.7382 23.1287 95.4903 22.8434C95.2424 22.5581 95.0803 22.2298 95.0069 21.8572C94.9321 21.4847 94.8822 20.9888 94.8587 20.3683C94.8338 19.7478 94.8213 19.0788 94.8213 18.3586C94.8213 17.6383 94.8338 16.9015 94.8587 16.1438C94.8836 15.3876 94.8961 14.6618 94.8961 13.9665C94.921 13.5205 95.0886 13.1909 95.3989 12.9803C95.7091 12.7698 96.0498 12.6451 96.4224 12.6077C96.795 12.5703 97.1357 12.6202 97.446 12.7559C97.7563 12.8931 97.8989 13.0967 97.874 13.3695C97.8241 14.1646 97.7618 15.0205 97.6884 15.9374C97.6136 16.8557 97.5457 17.7187 97.4834 18.5248C97.4211 19.3309 97.3961 20.0137 97.4086 20.5719C97.4211 21.1301 97.5014 21.4334 97.651 21.4833C97.8006 21.5331 97.9419 21.4334 98.079 21.1855C98.2147 20.9376 98.3518 20.6024 98.4876 20.1813C98.6233 19.7589 98.7535 19.2949 98.8782 18.7852C99.0014 18.2768 99.1067 17.781 99.1953 17.2962C99.2812 16.8128 99.356 16.3779 99.4183 15.9929C99.4807 15.6078 99.5111 15.3294 99.5111 15.1549C99.8089 15.0067 100.001 15.0067 100.087 15.1549C100.175 15.3031 100.255 15.5773 100.33 15.9735C100.355 16.0732 100.36 16.3142 100.348 16.6992C100.335 17.0843 100.285 17.5427 100.2 18.076C100.112 18.6093 99.9876 19.1868 99.8269 19.8073C99.6649 20.4278 99.4599 21.011 99.2134 21.5567C99.2881 20.1924 99.3491 18.896 99.3989 17.6674C99.4488 16.4388 99.4848 15.4651 99.5098 14.7449C99.5098 14.4471 99.658 14.2186 99.9557 14.0565C100.254 13.8959 100.576 13.8086 100.924 13.7961C101.272 13.7837 101.582 13.8515 101.855 14.0011C102.128 14.1493 102.251 14.3737 102.227 14.6715C102.152 15.1923 102.09 15.8627 102.042 16.6812C101.992 17.4998 101.949 18.3752 101.911 19.3046C101.874 20.2353 101.844 21.1786 101.819 22.1343C101.794 23.09 101.776 23.9764 101.763 24.795C101.751 25.6136 101.738 26.3269 101.726 26.9349C101.713 27.543 101.708 27.9585 101.708 28.1815L101.705 28.1829Z" fill="url(#paint6_linear_459_1266)"/>
<path d="M104.533 8.12019C104.533 7.52461 104.694 7.10909 105.017 6.87363C105.34 6.63817 105.693 6.5329 106.078 6.55645C106.463 6.58138 106.797 6.7185 107.083 6.96643C107.369 7.21436 107.474 7.53708 107.399 7.9346C107.349 8.23239 107.269 8.8155 107.157 9.68394C107.045 10.5524 106.939 11.551 106.84 12.6799C106.74 13.8087 106.654 14.9818 106.579 16.1965C106.504 17.4126 106.462 18.5359 106.449 19.565C106.437 20.5955 106.474 21.439 106.561 22.0956C106.648 22.7535 106.815 23.0817 107.064 23.0817C107.212 23.0817 107.417 22.8089 107.678 22.2632C107.938 21.7174 108.198 21.0969 108.459 20.4016C108.719 19.7077 108.962 19.0304 109.185 18.3725C109.408 17.716 109.557 17.288 109.631 17.0885C109.68 16.8655 109.791 16.7159 109.966 16.6412C110.139 16.5664 110.306 16.5484 110.469 16.5858C110.629 16.6231 110.766 16.7104 110.878 16.8461C110.989 16.9833 111.009 17.1633 110.934 17.3863C110.786 17.8836 110.586 18.5775 110.338 19.4709C110.09 20.3642 109.78 21.2451 109.408 22.1136C109.035 22.982 108.589 23.7383 108.068 24.3837C107.547 25.0291 106.927 25.3519 106.207 25.3519C105.536 25.3519 105.033 24.9987 104.698 24.2909C104.363 23.5831 104.133 22.6842 104.01 21.5928C103.885 20.5013 103.842 19.2853 103.88 17.9445C103.917 16.6051 103.985 15.2962 104.085 14.0178C104.183 12.7394 104.283 11.5746 104.383 10.5191C104.481 9.4651 104.531 8.66453 104.531 8.11743L104.533 8.12019Z" fill="url(#paint7_linear_459_1266)"/>
<path d="M113.912 10.8375C113.962 11.1104 113.931 11.3652 113.819 11.6007C113.707 11.8375 113.539 12.0481 113.316 12.2337C113.093 12.4193 112.833 12.5758 112.535 12.699C112.237 12.8237 111.927 12.9096 111.604 12.9594C110.984 13.0342 110.376 12.9719 109.78 12.7738C109.184 12.5758 108.849 12.2156 108.776 11.6949C108.676 11.1491 108.845 10.6838 109.279 10.2987C109.712 9.91366 110.29 9.66019 111.01 9.53554C111.729 9.41088 112.374 9.46767 112.945 9.70313C113.516 9.93859 113.838 10.3167 113.913 10.8389L113.912 10.8375ZM109.669 15.9373C109.669 15.3418 109.824 14.9332 110.135 14.7088C110.445 14.4858 110.786 14.3985 111.158 14.4484C111.531 14.4982 111.852 14.6589 112.126 14.9318C112.399 15.2046 112.499 15.5398 112.424 15.936C112.324 16.3833 112.232 16.9415 112.144 17.6105C112.057 18.2809 112.002 18.9263 111.977 19.5468C111.952 20.1673 111.97 20.7006 112.032 21.148C112.094 21.594 112.237 21.8183 112.46 21.8183C112.61 21.8183 112.788 21.6272 113 21.2422C113.211 20.8571 113.416 20.4042 113.614 19.8834C113.812 19.3626 113.999 18.8418 114.172 18.3197C114.345 17.7989 114.457 17.4014 114.507 17.1285C114.582 16.8806 114.705 16.713 114.88 16.6257C115.053 16.5385 115.221 16.5135 115.383 16.5509C115.543 16.5883 115.68 16.6811 115.793 16.8307C115.905 16.9789 115.923 17.1659 115.848 17.3889C115.798 17.5371 115.718 17.8169 115.606 18.2269C115.495 18.6368 115.351 19.0898 115.178 19.5856C115.003 20.0829 114.8 20.5967 114.564 21.1314C114.327 21.6646 114.056 22.1355 113.745 22.5455C113.435 22.9555 113.094 23.2713 112.722 23.4943C112.349 23.7173 111.941 23.7671 111.493 23.6425C110.823 23.4444 110.345 23.0788 110.06 22.5441C109.774 22.0109 109.607 21.3904 109.557 20.6826C109.507 19.9748 109.514 19.2061 109.575 18.3751C109.637 17.544 109.668 16.7324 109.668 15.9373H109.669Z" fill="url(#paint8_linear_459_1266)"/>
<path d="M120.203 13.9277C120.525 13.7546 120.848 13.7546 121.171 13.9277C121.494 14.1022 121.741 14.3432 121.916 14.6535C122.089 14.9637 122.145 15.2865 122.084 15.6216C122.021 15.9568 121.768 16.1868 121.32 16.31C120.923 16.4097 120.507 16.5081 120.074 16.6078C119.639 16.7075 119.23 16.7934 118.845 16.8682C118.46 16.943 118.132 17.0109 117.859 17.0732C117.586 17.1355 117.413 17.166 117.338 17.166C117.388 17.166 117.655 17.2353 118.139 17.371C118.622 17.5081 119.138 17.7311 119.683 18.0414C120.229 18.3516 120.725 18.7671 121.172 19.2879C121.62 19.8087 121.843 20.4666 121.843 21.2603C121.843 22.1301 121.545 22.8185 120.949 23.3268C120.354 23.8351 119.658 24.1772 118.865 24.3504C118.367 24.4252 117.891 24.4252 117.432 24.3504C116.973 24.2756 116.563 24.1204 116.204 23.885C115.844 23.6495 115.553 23.3268 115.33 22.9168C115.107 22.5068 114.995 22.0179 114.995 21.4459C114.995 20.9749 115.15 20.6024 115.46 20.3295C115.77 20.0566 116.104 19.8835 116.464 19.8087C116.823 19.7339 117.146 19.7713 117.432 19.9195C117.718 20.0677 117.836 20.3295 117.786 20.7007C117.661 21.4708 117.698 22.029 117.896 22.3752C118.095 22.7229 118.293 22.896 118.492 22.896C118.74 22.896 118.945 22.8088 119.106 22.6356C119.266 22.4625 119.359 22.2326 119.385 21.9473C119.41 21.6619 119.361 21.3392 119.237 20.9791C119.113 20.6204 118.915 20.2533 118.642 19.8807C118.419 19.558 118.139 19.2672 117.804 19.0054C117.469 18.745 117.133 18.522 116.8 18.335C116.464 18.1494 116.135 17.9998 115.813 17.8876C115.491 17.7768 115.23 17.6951 115.031 17.6452C114.808 17.5954 114.64 17.4402 114.528 17.1798C114.417 16.9195 114.367 16.6466 114.38 16.3613C114.392 16.0759 114.492 15.8156 114.678 15.5801C114.863 15.3446 115.143 15.2269 115.516 15.2269C116.261 15.2269 117.06 15.1092 117.917 14.8737C118.773 14.6382 119.536 14.3224 120.207 13.9249L120.203 13.9277Z" fill="url(#paint9_linear_459_1266)"/>
<path d="M123.553 11.4708C123.553 11.2977 123.559 11.1301 123.571 10.968C123.584 10.8074 123.589 10.6647 123.589 10.5401C123.589 9.94448 123.75 9.52896 124.073 9.2935C124.395 9.05804 124.743 8.95277 125.114 8.9777C125.487 9.00263 125.815 9.13976 126.101 9.38768C126.386 9.63561 126.491 9.95833 126.418 10.3545L126.232 11.3226H127.125C127.596 11.3226 127.938 11.403 128.149 11.565C128.36 11.7271 128.465 11.9002 128.465 12.0858C128.465 12.2714 128.354 12.439 128.13 12.5886C127.907 12.7368 127.596 12.8116 127.199 12.8116H126.083C125.983 13.705 125.897 14.6911 125.822 15.7715C125.747 16.8504 125.697 17.8685 125.674 18.8242C125.649 19.7799 125.661 20.5735 125.711 21.2065C125.761 21.8395 125.872 22.1553 126.046 22.1553C126.195 22.1553 126.4 21.9323 126.66 21.4849C126.92 21.0375 127.188 20.5237 127.461 19.9392C127.734 19.356 127.981 18.7854 128.204 18.2272C128.427 17.669 128.577 17.2909 128.652 17.0915C128.702 16.8685 128.812 16.7189 128.987 16.6441C129.16 16.5693 129.328 16.5513 129.49 16.5887C129.65 16.6261 129.788 16.7133 129.9 16.8491C130.011 16.9862 130.03 17.1662 129.955 17.3892C129.807 17.8865 129.608 18.5305 129.36 19.3256C129.112 20.1206 128.801 20.8893 128.429 21.6331C128.056 22.3769 127.61 23.0237 127.088 23.568C126.567 24.1138 125.947 24.3866 125.227 24.3866C124.756 24.3866 124.371 24.201 124.073 23.8284C123.775 23.4559 123.552 22.9669 123.402 22.3575C123.254 21.7494 123.16 21.0486 123.123 20.255C123.085 19.4613 123.08 18.6413 123.103 17.7978C123.128 16.9543 123.178 16.1039 123.253 15.2479C123.328 14.3919 123.389 13.6052 123.438 12.885H122.545C122.149 12.885 121.844 12.8102 121.634 12.662C121.423 12.5138 121.312 12.3517 121.298 12.1786C121.286 12.0055 121.379 11.8434 121.578 11.6952C121.776 11.5456 122.099 11.4722 122.545 11.4722H123.551L123.553 11.4708Z" fill="url(#paint10_linear_459_1266)"/>
<defs>
<linearGradient id="paint0_linear_459_1266" x1="15.2297" y1="-9.44805" x2="15.0718" y2="32.1789" gradientUnits="userSpaceOnUse">
<stop offset="0.06" stop-color="#E7B932"/>
<stop offset="0.21" stop-color="#F5D850"/>
<stop offset="0.35" stop-color="#E9B230"/>
<stop offset="0.53" stop-color="#E4A025"/>
<stop offset="0.65" stop-color="#E6A728"/>
<stop offset="0.76" stop-color="#E6AF2C"/>
<stop offset="0.87" stop-color="#E7BC35"/>
<stop offset="1" stop-color="#E7BF37"/>
</linearGradient>
<linearGradient id="paint1_linear_459_1266" x1="26.8239" y1="-9.40374" x2="26.6647" y2="32.2232" gradientUnits="userSpaceOnUse">
<stop offset="0.06" stop-color="#E7B932"/>
<stop offset="0.21" stop-color="#F5D850"/>
<stop offset="0.35" stop-color="#E9B230"/>
<stop offset="0.53" stop-color="#E4A025"/>
<stop offset="0.65" stop-color="#E6A728"/>
<stop offset="0.76" stop-color="#E6AF2C"/>
<stop offset="0.87" stop-color="#E7BC35"/>
<stop offset="1" stop-color="#E7BF37"/>
</linearGradient>
<linearGradient id="paint2_linear_459_1266" x1="35.6375" y1="-9.37047" x2="35.4796" y2="32.2565" gradientUnits="userSpaceOnUse">
<stop offset="0.06" stop-color="#E7B932"/>
<stop offset="0.21" stop-color="#F5D850"/>
<stop offset="0.35" stop-color="#E9B230"/>
<stop offset="0.53" stop-color="#E4A025"/>
<stop offset="0.65" stop-color="#E6A728"/>
<stop offset="0.76" stop-color="#E6AF2C"/>
<stop offset="0.87" stop-color="#E7BC35"/>
<stop offset="1" stop-color="#E7BF37"/>
</linearGradient>
<linearGradient id="paint3_linear_459_1266" x1="63.5963" y1="-9.26371" x2="63.4384" y2="32.3632" gradientUnits="userSpaceOnUse">
<stop offset="0.06" stop-color="#E7B932"/>
<stop offset="0.21" stop-color="#F5D850"/>
<stop offset="0.35" stop-color="#E9B230"/>
<stop offset="0.53" stop-color="#E4A025"/>
<stop offset="0.65" stop-color="#E6A728"/>
<stop offset="0.76" stop-color="#E6AF2C"/>
<stop offset="0.87" stop-color="#E7BC35"/>
<stop offset="1" stop-color="#E7BF37"/>
</linearGradient>
<linearGradient id="paint4_linear_459_1266" x1="82.2175" y1="-9.1932" x2="82.0596" y2="32.4337" gradientUnits="userSpaceOnUse">
<stop offset="0.06" stop-color="#E7B932"/>
<stop offset="0.21" stop-color="#F5D850"/>
<stop offset="0.35" stop-color="#E9B230"/>
<stop offset="0.53" stop-color="#E4A025"/>
<stop offset="0.65" stop-color="#E6A728"/>
<stop offset="0.76" stop-color="#E6AF2C"/>
<stop offset="0.87" stop-color="#E7BC35"/>
<stop offset="1" stop-color="#E7BF37"/>
</linearGradient>
<linearGradient id="paint5_linear_459_1266" x1="90.1952" y1="-9.16291" x2="90.0359" y2="32.464" gradientUnits="userSpaceOnUse">
<stop offset="0.06" stop-color="#E7B932"/>
<stop offset="0.21" stop-color="#F5D850"/>
<stop offset="0.35" stop-color="#E9B230"/>
<stop offset="0.53" stop-color="#E4A025"/>
<stop offset="0.65" stop-color="#E6A728"/>
<stop offset="0.76" stop-color="#E6AF2C"/>
<stop offset="0.87" stop-color="#E7BC35"/>
<stop offset="1" stop-color="#E7BF37"/>
</linearGradient>
<linearGradient id="paint6_linear_459_1266" x1="98.6205" y1="-9.13095" x2="98.4626" y2="32.496" gradientUnits="userSpaceOnUse">
<stop offset="0.06" stop-color="#E7B932"/>
<stop offset="0.21" stop-color="#F5D850"/>
<stop offset="0.35" stop-color="#E9B230"/>
<stop offset="0.53" stop-color="#E4A025"/>
<stop offset="0.65" stop-color="#E6A728"/>
<stop offset="0.76" stop-color="#E6AF2C"/>
<stop offset="0.87" stop-color="#E7BC35"/>
<stop offset="1" stop-color="#E7BF37"/>
</linearGradient>
<linearGradient id="paint7_linear_459_1266" x1="107.527" y1="-9.09624" x2="107.369" y2="32.5293" gradientUnits="userSpaceOnUse">
<stop offset="0.06" stop-color="#E7B932"/>
<stop offset="0.21" stop-color="#F5D850"/>
<stop offset="0.35" stop-color="#E9B230"/>
<stop offset="0.53" stop-color="#E4A025"/>
<stop offset="0.65" stop-color="#E6A728"/>
<stop offset="0.76" stop-color="#E6AF2C"/>
<stop offset="0.87" stop-color="#E7BC35"/>
<stop offset="1" stop-color="#E7BF37"/>
</linearGradient>
<linearGradient id="paint8_linear_459_1266" x1="112.409" y1="-9.07844" x2="112.251" y2="32.5485" gradientUnits="userSpaceOnUse">
<stop offset="0.06" stop-color="#E7B932"/>
<stop offset="0.21" stop-color="#F5D850"/>
<stop offset="0.35" stop-color="#E9B230"/>
<stop offset="0.53" stop-color="#E4A025"/>
<stop offset="0.65" stop-color="#E6A728"/>
<stop offset="0.76" stop-color="#E6AF2C"/>
<stop offset="0.87" stop-color="#E7BC35"/>
<stop offset="1" stop-color="#E7BF37"/>
</linearGradient>
<linearGradient id="paint9_linear_459_1266" x1="118.337" y1="-9.05617" x2="118.178" y2="32.5708" gradientUnits="userSpaceOnUse">
<stop offset="0.06" stop-color="#E7B932"/>
<stop offset="0.21" stop-color="#F5D850"/>
<stop offset="0.35" stop-color="#E9B230"/>
<stop offset="0.53" stop-color="#E4A025"/>
<stop offset="0.65" stop-color="#E6A728"/>
<stop offset="0.76" stop-color="#E6AF2C"/>
<stop offset="0.87" stop-color="#E7BC35"/>
<stop offset="1" stop-color="#E7BF37"/>
</linearGradient>
<linearGradient id="paint10_linear_459_1266" x1="125.74" y1="-9.02684" x2="125.582" y2="32.5987" gradientUnits="userSpaceOnUse">
<stop offset="0.06" stop-color="#E7B932"/>
<stop offset="0.21" stop-color="#F5D850"/>
<stop offset="0.35" stop-color="#E9B230"/>
<stop offset="0.53" stop-color="#E4A025"/>
<stop offset="0.65" stop-color="#E6A728"/>
<stop offset="0.76" stop-color="#E6AF2C"/>
<stop offset="0.87" stop-color="#E7BC35"/>
<stop offset="1" stop-color="#E7BF37"/>
</linearGradient>
</defs>
</svg>
