<svg width="20" height="15" viewBox="0 0 20 15" fill="none" xmlns="http://www.w3.org/2000/svg">
<path d="M19.6182 1.84275C19.571 1.5837 19.4669 1.36113 19.3087 1.18113C19.154 1.00503 18.948 0.870454 18.6968 0.781168C18.1165 0.575007 17.515 0.407435 16.909 0.2831C16.3112 0.160466 15.6927 0.0765581 15.0707 0.033702C14.2879 -0.0202238 13.5072 -0.00939698 12.7502 0.0659048C11.9795 0.142595 11.2123 0.288201 10.47 0.498699C9.97679 0.638545 9.57228 0.773221 9.20094 0.97605C9.1778 0.988681 9.15503 1.00128 9.13251 1.0137C8.93003 1.12558 8.75517 1.22215 8.51295 1.24887C7.98633 1.30696 7.44412 1.41946 6.90139 1.58318C6.35866 1.7469 5.81934 1.9497 5.29777 2.1458C5.15817 2.1983 5.01381 2.25257 4.87175 2.30518C4.75682 2.34776 4.67044 2.4259 4.62856 2.52519C4.58914 2.61864 4.59143 2.7243 4.63508 2.82268C4.69651 2.9611 4.82535 3.03835 4.97557 3.03835C5.03255 3.03835 5.09262 3.02721 5.15324 3.0041C5.18649 2.99143 5.22167 2.97668 5.26408 2.95774C6.01276 2.62266 6.80954 2.35858 7.6323 2.17286C7.86782 2.1197 8.10126 2.07757 8.34837 2.03302C8.42582 2.01903 8.50511 2.00474 8.58471 1.99002C8.58489 2.00265 8.58451 2.01261 8.58298 2.01997C8.44844 2.6625 8.3705 3.31606 8.35135 3.96251C8.33219 4.60851 8.37116 5.26548 8.46722 5.91508C8.47693 5.98074 8.46368 6.00548 8.39972 6.04115C8.02151 6.25203 7.57286 6.12437 7.30864 5.73072C7.23733 5.62446 7.15554 5.55548 7.06549 5.52567C6.97079 5.4943 6.86933 5.50783 6.77202 5.56484C6.68055 5.61842 6.62 5.69539 6.59685 5.78742C6.57006 5.89409 6.59508 6.01464 6.66927 6.13603C6.78708 6.32883 6.93436 6.48821 7.10703 6.60974C7.27707 6.72942 7.47653 6.81576 7.69987 6.86632C7.80175 6.88939 7.90107 6.89914 7.99691 6.89911C8.22545 6.89911 8.43422 6.84373 8.61036 6.78133L8.95571 7.98588C8.88381 7.99275 8.81159 7.99886 8.74098 8.00483C8.51091 8.0243 8.27299 8.04446 8.04171 8.0904C7.64882 8.16848 7.26794 8.3195 6.90965 8.5393C6.56441 8.75112 6.2538 9.01804 5.98649 9.33264C5.71943 9.64697 5.50838 9.99377 5.3593 10.3634C5.20478 10.7465 5.12361 11.1379 5.11809 11.5269C5.1157 11.6959 5.14932 11.8394 5.21807 11.9532C5.28896 12.0706 5.39553 12.155 5.53485 12.204C5.60665 12.2293 5.67803 12.2418 5.74813 12.2418C5.94593 12.2418 6.13349 12.1423 6.29086 11.95C6.31383 11.922 6.33673 11.8938 6.35963 11.8657C6.48758 11.7085 6.61989 11.5461 6.76151 11.4C7.15384 10.9956 7.59857 10.6583 8.08339 10.3975C8.5573 10.1426 9.08344 9.95324 9.6472 9.8348C9.70647 9.82235 9.74832 9.8228 9.77893 9.83616C9.81123 9.85028 9.8409 9.88269 9.87224 9.93811C10.0588 10.2678 10.2702 10.5938 10.5004 10.9071C10.7232 11.2101 10.9701 11.5099 11.2343 11.7983C11.294 11.8634 11.313 11.8927 11.2917 11.9649C11.1793 12.3464 10.9938 12.6948 10.7404 13.0004C10.6185 13.1474 10.4815 13.283 10.3332 13.4032C10.1859 13.5228 10.0266 13.628 9.85971 13.7159C9.53692 13.886 9.19279 13.9901 8.83685 14.0253C8.46614 14.0619 8.09761 14.0218 7.74147 13.9061C7.30129 13.7631 6.87401 13.5982 6.47151 13.416C6.07057 13.2345 5.68296 13.0307 5.31946 12.8103C4.95729 12.5908 4.60892 12.3486 4.28394 12.0905C3.96011 11.8332 3.65047 11.553 3.36363 11.2575C3.07766 10.9629 2.80633 10.6449 2.55717 10.3123C2.30868 9.98065 2.07527 9.62517 1.86342 9.25578C1.44125 8.51966 1.08698 7.69738 0.810413 6.8118C0.701902 6.46434 0.769708 6.1987 1.03712 5.92359C1.41612 5.53368 1.81005 5.16949 2.2079 4.84115C2.6221 4.49934 3.05465 4.1847 3.49355 3.90602C3.58311 3.84914 3.64471 3.75666 3.66251 3.65228C3.68045 3.54717 3.65269 3.43863 3.58645 3.35455L3.5828 3.3499C3.52503 3.27636 3.44212 3.22761 3.34937 3.21255C3.25741 3.19763 3.16337 3.21709 3.08463 3.26734C2.59271 3.58115 2.11692 3.92882 1.67045 4.30064C1.22464 4.67195 0.795422 5.07788 0.394691 5.50724C0.220144 5.69425 0.0970237 5.92477 0.0386561 6.17385C-0.0197461 6.42297 -0.0118342 6.6842 0.0614549 6.92923C0.202759 7.40155 0.36641 7.86092 0.547828 8.29469C0.729559 8.72915 0.934262 9.15004 1.15621 9.54571C1.37854 9.942 1.6244 10.3241 1.88702 10.6813C2.15002 11.0391 2.43717 11.382 2.7405 11.7006C3.0442 12.0195 3.37262 12.3229 3.71668 12.6024C4.06106 12.8822 4.43073 13.1458 4.81543 13.386C5.20044 13.6263 5.61134 13.85 6.03663 14.0506C6.46225 14.2514 6.9143 14.4348 7.38016 14.5958C7.75477 14.7252 8.14391 14.7916 8.53676 14.7933C8.54186 14.7933 8.54693 14.7933 8.55206 14.7933C8.92933 14.7933 9.30279 14.7337 9.66229 14.616C10.0253 14.4971 10.3656 14.3219 10.6737 14.0951C10.9881 13.8636 11.2622 13.5833 11.4883 13.262C11.6206 13.074 11.7296 12.867 11.8351 12.6668C11.8683 12.6039 11.9022 12.5394 11.9369 12.4754C12.3686 12.796 12.8348 13.0097 13.324 13.1109C13.3861 13.1237 13.4589 13.1348 13.529 13.1191C13.618 13.0993 13.6917 13.0562 13.7421 12.9945C13.7927 12.9325 13.8199 12.8518 13.8209 12.7609C13.8221 12.6483 13.7858 12.5561 13.7132 12.4869C13.6543 12.4308 13.5736 12.3917 13.4666 12.3673C13.186 12.3036 12.923 12.202 12.6851 12.0654C12.4465 11.9284 12.2271 11.7528 12.0328 11.5433C11.4105 10.872 10.8808 10.1619 10.4583 9.43262C10.2475 9.06874 10.059 8.69244 9.89795 8.31409C9.73708 7.93619 9.5991 7.54559 9.48785 7.15323C9.3767 6.76117 9.28905 6.35624 9.22738 5.94968C9.16575 5.54336 9.12831 5.12393 9.11613 4.70307C9.09174 3.86181 9.16718 2.97915 9.3403 2.07955C9.40214 1.75825 9.57384 1.56677 9.89708 1.45868C10.7516 1.17291 11.6277 0.973135 12.5011 0.864867C13.3762 0.756391 14.2745 0.736611 15.1708 0.806049C15.7102 0.847829 16.2565 0.925976 16.7948 1.03827C17.3191 1.14765 17.8518 1.2928 18.378 1.46971C18.6612 1.56493 18.8202 1.72865 18.8782 1.98489C19.0337 2.67124 19.1217 3.36485 19.1399 4.04652C19.1583 4.73635 19.1056 5.43274 18.9834 6.11632C18.8946 6.61262 18.7721 7.10086 18.6193 7.56749C18.4669 8.03256 18.2802 8.48916 18.0642 8.92466C17.8489 9.35884 17.5985 9.78421 17.32 10.1889C17.0421 10.5926 16.7286 10.9871 16.3879 11.3613C15.9715 11.8188 15.5688 12.1062 15.1206 12.266C15.0497 12.2912 14.9778 12.3115 14.9017 12.3329C14.8291 12.3533 14.754 12.3745 14.6804 12.4003C14.5813 12.435 14.505 12.4972 14.4598 12.5802C14.4149 12.6625 14.4056 12.7596 14.4335 12.8536C14.4847 13.0257 14.6265 13.1306 14.7981 13.1306C14.822 13.1306 14.8466 13.1285 14.8714 13.1244C14.9224 13.1158 14.9716 13.1032 15.0192 13.0909L15.0286 13.0885C15.733 12.9072 16.3461 12.5245 16.9028 11.9183C17.2803 11.5072 17.6269 11.0744 17.9329 10.6318C18.2409 10.1865 18.5165 9.71862 18.7522 9.24131C18.9892 8.76115 19.1925 8.2578 19.3563 7.74527C19.5211 7.22992 19.6507 6.69066 19.7415 6.14245C19.7959 5.81459 20.0452 4.06634 19.6183 1.84261L19.6182 1.84275ZM9.42421 9.10649C9.07824 9.18388 8.74361 9.28493 8.42811 9.40739C8.08023 9.54241 7.74564 9.70731 7.43364 9.89751C7.12067 10.0883 6.82151 10.3099 6.54449 10.5563C6.32639 10.7503 6.11707 10.964 5.92014 11.1936C5.92233 11.185 5.92448 11.1764 5.92663 11.1678C5.97431 10.9783 6.02362 10.7825 6.09556 10.6023C6.21663 10.299 6.38712 10.0201 6.60223 9.77342C6.81172 9.53321 7.05817 9.32938 7.33481 9.16764C7.61121 9.006 7.9095 8.89117 8.22136 8.82635C8.41617 8.78585 8.6132 8.76555 8.81045 8.76555C8.93697 8.76555 9.06359 8.77392 9.1897 8.79064C9.22825 8.79574 9.28929 8.84186 9.32299 8.89131C9.36098 8.94707 9.38746 9.01391 9.4181 9.09126C9.42011 9.09636 9.42213 9.10146 9.42417 9.1066L9.42421 9.10649Z" fill="#E7AA2C"/>
<path d="M15.2219 9.85944C15.6717 9.72772 16.0791 9.5185 16.4326 9.2376C16.7758 8.96488 17.0758 8.61856 17.3244 8.20829C17.4709 7.96649 17.4666 7.72129 17.3121 7.49924C17.236 7.38986 17.1413 7.31209 17.0307 7.26809C16.9223 7.22506 16.8012 7.21538 16.6704 7.23929C16.5793 7.25598 16.4963 7.29412 16.416 7.33104C16.4047 7.33624 16.3934 7.34141 16.3821 7.34652C15.8189 7.6015 15.2314 7.75724 14.6359 7.80933C14.1394 7.85277 13.6477 7.83306 13.1746 7.75079C12.6994 7.66813 12.2297 7.52002 11.7785 7.31056C11.463 7.16406 11.1776 7.21014 10.9749 7.44031C10.8742 7.55472 10.8208 7.68447 10.8162 7.82598C10.8118 7.9659 10.8558 8.10987 10.9471 8.25388C11.1302 8.54256 11.3376 8.79831 11.5634 9.01405C11.7902 9.23069 12.0439 9.41495 12.3176 9.56174C12.5899 9.70783 12.8921 9.82214 13.2155 9.90147C13.535 9.97982 13.8873 10.027 14.2626 10.0416L14.2723 10.042L14.2818 10.0402C14.3413 10.0292 14.4114 10.0186 14.4925 10.0063C14.7035 9.97427 14.9661 9.93443 15.222 9.85948L15.2219 9.85944ZM16.398 8.18191C15.8227 8.90308 15.0613 9.26789 14.1297 9.26789C14.1033 9.26789 14.0766 9.26761 14.0499 9.26702C13.1388 9.24697 12.3955 8.88024 11.8366 8.17598C12.1698 8.29889 12.5049 8.39574 12.8361 8.46466C13.2606 8.55301 13.6909 8.59812 14.1152 8.59878C14.1183 8.59878 14.1214 8.59878 14.1245 8.59878C14.5461 8.59878 14.9736 8.55492 15.3955 8.46841C15.7276 8.40029 16.0638 8.3042 16.3981 8.18191H16.398Z" fill="#E7AA2C"/>
<path d="M11.0509 5.37474C11.0554 5.34591 11.0587 5.31718 11.0619 5.28941C11.068 5.23604 11.0737 5.18562 11.0872 5.13996C11.1381 4.96756 11.2498 4.81345 11.4019 4.70609C11.5528 4.59959 11.7293 4.54875 11.899 4.56301C12.1089 4.58064 12.2907 4.6625 12.4247 4.79964C12.5598 4.93786 12.6437 5.12927 12.6675 5.3532C12.6809 5.4784 12.7218 5.57695 12.7891 5.64611C12.86 5.71891 12.9561 5.75368 13.067 5.74667C13.1773 5.7397 13.2686 5.69303 13.3312 5.61169C13.39 5.5352 13.4204 5.42985 13.4191 5.30697C13.4171 5.109 13.3733 4.91485 13.289 4.72993C13.2082 4.5526 13.0941 4.39221 12.9501 4.25327C12.8062 4.11446 12.6406 4.00498 12.4578 3.92787C12.2677 3.84761 12.0684 3.80659 11.8655 3.80597C11.8639 3.80597 11.8623 3.80597 11.8607 3.80597C11.4602 3.80597 11.0789 3.9572 10.7866 4.23214C10.4933 4.50805 10.3175 4.88226 10.2918 5.28581C10.276 5.53395 10.4098 5.7186 10.6249 5.74532C10.6423 5.74747 10.6593 5.74855 10.6761 5.74855C10.7654 5.74855 10.8457 5.71822 10.9108 5.6595C10.9837 5.59361 11.0322 5.49519 11.051 5.37481L11.0509 5.37474Z" fill="#E7AA2C"/>
<path d="M15.1911 5.74706C15.2985 5.74938 15.3921 5.71281 15.4614 5.64125C15.5276 5.57296 15.5678 5.47566 15.5777 5.35982C15.6011 5.08617 15.7214 4.85665 15.9165 4.71358C16.1 4.57901 16.3341 4.53466 16.5757 4.58869C16.7466 4.6269 16.8871 4.71219 16.9934 4.84218C17.0998 4.97231 17.1665 5.14523 17.1864 5.34226C17.1992 5.46906 17.2436 5.5739 17.3147 5.64535C17.3818 5.71277 17.4683 5.74778 17.5667 5.74778C17.5792 5.74778 17.592 5.74719 17.6049 5.74605C17.719 5.73592 17.8116 5.68366 17.8728 5.59492C17.9304 5.51147 17.9553 5.40042 17.9449 5.2738C17.9117 4.86752 17.7358 4.49521 17.4496 4.2254C17.1629 3.95512 16.7851 3.80614 16.3859 3.80597H16.3853C16.0187 3.80597 15.6606 3.93797 15.3769 4.17769C15.0929 4.41768 14.9025 4.7496 14.8407 5.11237C14.8274 5.19017 14.8276 5.2688 14.8277 5.33814C14.828 5.57796 14.9741 5.74227 15.1911 5.74702L15.1911 5.74706Z" fill="#E7AA2C"/>
<path d="M3.32976 7.8842C3.28624 7.8182 3.23718 7.75047 3.17319 7.70227C3.0973 7.64511 3.0094 7.62269 2.91192 7.63571C2.78495 7.65264 2.6822 7.72347 2.63001 7.83C2.60003 7.89118 2.58757 7.96249 2.59388 8.03616C2.60027 8.11011 2.6246 8.18385 2.6662 8.2553C2.75171 8.40216 2.86192 8.53319 2.99375 8.64475C3.12173 8.75309 3.2665 8.84012 3.42404 8.90352C3.58152 8.96688 3.7467 9.0045 3.91493 9.01536C3.94869 9.01755 3.98239 9.01862 4.01601 9.01862C4.15478 9.01862 4.29189 9.00006 4.42483 8.96314C4.75609 8.87118 5.04373 8.6773 5.25665 8.40247C5.46694 8.13107 5.58895 7.80123 5.6095 7.44856L5.6104 7.43309L5.60589 7.41827C5.58569 7.35196 5.56636 7.28356 5.54766 7.21742C5.5031 7.05981 5.45702 6.89681 5.39393 6.74114C5.35701 6.65005 5.29187 6.58301 5.20561 6.54734C5.11323 6.50913 5.00722 6.51152 4.90714 6.55407C4.81876 6.59162 4.75005 6.66046 4.71358 6.74798C4.67797 6.83341 4.67485 6.93377 4.70469 7.03052C4.71472 7.06296 4.72822 7.09163 4.7413 7.11932C4.75064 7.13906 4.75942 7.15773 4.76584 7.1756C4.88167 7.49902 4.78551 7.85953 4.52657 8.07274C4.34345 8.22351 4.11849 8.28781 3.89317 8.25384C3.66425 8.21935 3.46416 8.08804 3.32976 7.88417V7.8842Z" fill="#E7AA2C"/>
</svg>
