<svg width="12" height="11" fill="none" xmlns="http://www.w3.org/2000/svg"><path d="M.332.031a.508.508 0 0 0-.267.225C.018.336.01.372.01.5s.008.164.055.244C.13.854.218.927.339.97c.076.026.672.03 5.16.03 5.694 0 5.188.014 5.352-.149a.494.494 0 0 0 0-.702c-.164-.163.343-.149-5.36-.148C1.134.003.399.007.332.031m0 3a.508.508 0 0 0-.267.225c-.047.08-.055.116-.055.244s.008.164.055.244c.065.11.153.183.274.226.076.026.672.03 5.16.03 5.694 0 5.188.014 5.352-.149a.494.494 0 0 0 0-.702c-.164-.163.343-.149-5.36-.148-4.357.002-5.092.006-5.159.03M7.5 8.002c0 2.169.004 2.597.027 2.584l2.24-1.295a169.57 169.57 0 0 0 2.213-1.29c0-.006-.857-.507-1.905-1.111l-2.24-1.294-.335-.193v2.599M.332 6.031a.508.508 0 0 0-.267.225c-.047.08-.055.116-.055.244s.008.164.055.244a.622.622 0 0 0 .122.145C.34 7.006.195 7 2.999 7c2.892 0 2.692.011 2.852-.149a.494.494 0 0 0 0-.702c-.161-.16.042-.149-2.86-.148-2.188.002-2.593.006-2.659.03M9.305 7.6c.371.214.675.394.675.401 0 .008-1.335.787-1.465.854-.008.004-.015-.381-.015-.856v-.863l.065.038.74.426M.332 9.031a.508.508 0 0 0-.267.225c-.047.08-.055.116-.055.244s.008.164.055.244a.622.622 0 0 0 .122.145c.153.117.008.111 2.812.111 2.892 0 2.692.011 2.852-.149a.494.494 0 0 0 0-.702c-.161-.16.042-.149-2.86-.148-2.188.002-2.593.006-2.659.03" fill-rule="evenodd" fill="#000"/></svg>