<svg width="18" height="22" viewBox="0 0 18 22" fill="none" xmlns="http://www.w3.org/2000/svg">
<path d="M17.484 5.31556L13.3068 1.13835C12.9623 0.793838 12.5316 0.621582 12.0579 0.621582H1.76563C0.775153 0.621582 0 1.39674 0 2.38721V19.6128C0 20.6033 0.775153 21.3785 1.76563 21.3785H16.2351C17.2256 21.3785 18.0008 20.6033 18.0008 19.6128V6.56442C18.0008 6.09072 17.8285 5.61701 17.484 5.31556ZM16.7089 19.6128C16.7089 19.8712 16.4935 20.0865 16.2351 20.0865H1.76563C1.50724 20.0865 1.29192 19.8712 1.29192 19.6128V2.38721C1.29192 2.12882 1.50724 1.9135 1.76563 1.9135H12.0579C12.1871 1.9135 12.3163 1.95657 12.4024 2.0427L16.5797 6.21991C16.6658 6.30604 16.7089 6.43523 16.7089 6.56442V19.6128Z" fill="black"/>
<path d="M3.96132 13.2392C5.46856 13.2392 6.9758 13.2392 8.43998 13.2392C8.6553 13.2392 8.87062 13.2392 9.08594 13.2392C9.90416 13.2392 9.90416 11.9473 9.08594 11.9473C7.5787 11.9473 6.07146 11.9473 4.60728 11.9473C4.39196 11.9473 4.17664 11.9473 3.96132 11.9473C3.1431 11.9473 3.1431 13.2392 3.96132 13.2392Z" fill="black"/>
<path d="M14.0382 14.3159C11.1099 14.3159 8.1815 14.3159 5.25315 14.3159C4.8225 14.3159 4.43493 14.3159 4.00429 14.3159C3.18607 14.3159 3.18607 15.6078 4.00429 15.6078C6.93264 15.6078 9.861 15.6078 12.7894 15.6078C13.22 15.6078 13.6076 15.6078 14.0382 15.6078C14.8564 15.6078 14.8564 14.3159 14.0382 14.3159Z" fill="black"/>
<path d="M10.8516 16.7275C8.82756 16.7275 6.84661 16.7275 4.8226 16.7275C4.52115 16.7275 4.26277 16.7275 3.96132 16.7275C3.1431 16.7275 3.1431 18.0195 3.96132 18.0195C5.98533 18.0195 7.96628 18.0195 9.99029 18.0195C10.2917 18.0195 10.5501 18.0195 10.8516 18.0195C11.6698 18.0195 11.6698 16.7275 10.8516 16.7275Z" fill="black"/>
<path d="M5.25356 10.0528C6.02871 9.27767 6.80387 8.50251 7.57902 7.72736C8.35417 8.50251 9.12932 9.27767 9.90448 10.0528C10.1629 10.3112 10.5504 10.3112 10.8088 10.0528C11.7562 9.10541 12.7036 8.158 13.6511 7.21059C14.2539 6.6077 13.3065 5.70335 12.7467 6.30625C11.9716 7.0814 11.1533 7.89962 10.3782 8.67477C9.60303 7.89962 8.82788 7.12446 8.05272 6.34931C7.79434 6.09093 7.40676 6.09093 7.14838 6.34931C6.20097 7.29672 5.29662 8.20107 4.34922 9.14847C3.74632 9.75137 4.65066 10.6557 5.25356 10.0528Z" fill="black"/>
</svg>
