<svg width="11" height="12" viewBox="0 0 11 12" fill="none" xmlns="http://www.w3.org/2000/svg">
<path d="M9.65714 5.3168L10.5949 4.7748C10.981 4.55111 11.1141 4.05566 10.8915 3.66902L9.92739 1.99802C9.70471 1.61238 9.20826 1.47879 8.82161 1.70145L7.88032 2.24447C7.69762 2.35074 7.5367 2.27989 7.47546 2.24447C7.41422 2.20904 7.27303 2.1048 7.27303 1.89376V0.80975C7.27303 0.363394 6.90967 3.05176e-05 6.46331 3.05176e-05H4.53618C4.08982 3.05176e-05 3.72646 0.363394 3.72646 0.80975V1.89376C3.72646 2.1048 3.58475 2.20905 3.52403 2.24447C3.4633 2.27989 3.30237 2.35074 3.11917 2.24447L2.17787 1.70095C1.79123 1.47929 1.29528 1.61238 1.07209 1.99802L0.108023 3.66954C-0.114657 4.05568 0.0179417 4.55163 0.404587 4.7748L1.34285 5.3168C1.52555 5.42207 1.54528 5.59667 1.54528 5.667C1.54528 5.73734 1.52554 5.91194 1.34285 6.0172L0.405092 6.55921C0.0189534 6.7829 -0.114138 7.27835 0.108528 7.66499L1.0726 9.33599C1.29528 9.72163 1.79173 9.85573 2.17838 9.63256L3.11967 9.08954C3.30185 8.98326 3.46329 9.05411 3.52453 9.08954C3.58577 9.12496 3.72696 9.22921 3.72696 9.44024V10.5243C3.72696 10.9706 4.09033 11.334 4.53668 11.334H6.46382C6.91017 11.334 7.27353 10.9706 7.27353 10.5243V9.44024C7.27353 9.22921 7.41524 9.12496 7.47596 9.08954C7.53669 9.05411 7.69812 8.98326 7.88082 9.08954L8.82212 9.63306C9.20977 9.85522 9.70522 9.72213 9.9279 9.33599L10.892 7.66447C11.1146 7.27833 10.9821 6.78238 10.5954 6.55921L9.65765 6.0172C9.47495 5.91194 9.45522 5.73734 9.45522 5.667C9.45522 5.59667 9.47495 5.42207 9.65765 5.3168H9.65714ZM9.25178 6.71859L10.19 7.26009L9.22597 8.93161L8.28518 8.38859C7.90512 8.16947 7.45117 8.16896 7.0706 8.38859C6.69054 8.60823 6.46331 9.00145 6.46331 9.44022V10.5242H4.53618V9.44022C4.53618 9.00145 4.30895 8.60772 3.92889 8.38859C3.7386 8.27878 3.5301 8.22362 3.3216 8.22362C3.11309 8.22362 2.90459 8.27878 2.71481 8.38809L1.77352 8.9306L0.809952 7.2596L1.74771 6.71759C2.12777 6.49796 2.355 6.10473 2.355 5.66597C2.355 5.2272 2.12777 4.83347 1.74771 4.61434L0.809447 4.07284L1.77352 2.40132L2.71431 2.94434C3.09437 3.16347 3.54832 3.16397 3.92889 2.94434C4.30895 2.7247 4.53618 2.33148 4.53618 1.89271V0.808701H6.46331V1.89271C6.46331 2.33148 6.69054 2.72521 7.0706 2.94434C7.45066 3.16397 7.90512 3.16397 8.28467 2.94434L9.22597 2.40183L10.1895 4.07283L9.25178 4.61484C8.87171 4.83447 8.64449 5.2277 8.64449 5.66646C8.64449 6.10522 8.87171 6.49845 9.25178 6.71808V6.71859Z" fill="black"/>
<path d="M5.49969 3.37158C4.234 3.37158 3.2041 4.40144 3.2041 5.66717C3.2041 6.9329 4.23346 7.96276 5.49969 7.96276C6.76592 7.96276 7.79528 6.9329 7.79528 5.66717C7.79528 4.40144 6.76592 3.37158 5.49969 3.37158ZM5.49969 7.15304C4.68086 7.15304 4.01382 6.48654 4.01382 5.66717C4.01382 4.8478 4.68032 4.1813 5.49969 4.1813C6.31906 4.1813 6.98556 4.8478 6.98556 5.66717C6.98556 6.48654 6.31906 7.15304 5.49969 7.15304Z" fill="black"/>
</svg>
